<?xml version="1.0" encoding="UTF-8" standalone="no"?> <svg xmlns="http://www.w3.org/2000/svg" xmlns:xlink="http://www.w3.org/1999/xlink" xmlns:serif="http://www.serif.com/" width="100%" height="100%" viewBox="0 0 34 39" version="1.1" xml:space="preserve" style="fill-rule:evenodd;clip-rule:evenodd;stroke-linejoin:round;stroke-miterlimit:2;"> <g id="Lake-District" serif:id="Lake District" transform="matrix(1,0,0,1,-204.309,-285.213)"> <path d="M237.711,303.271C237.719,303.301 237.727,303.331 237.734,303.361L237.652,304.266L237.652,306.823L237.889,309.146L236.239,310.774L233.644,312.633L235.294,315.189L232.461,317.513L233.643,320.996L232.461,322.855L231.523,323.254C231.554,322.45 231.478,321.668 231.117,321.03C229.759,318.636 228.182,321.378 227.337,322.62C227.142,322.91 226.95,323.155 226.76,323.367L226.563,323.319L225.618,321.229L222.618,322.525L221.842,319.603L218.776,320.532L216.653,318.909L214.058,318.441L213.827,319.055C213.557,319.175 213.421,319.965 213.393,320.197C213.388,320.226 213.355,320.339 213.308,320.485C213.306,320.821 213.322,321.149 213.202,321.495C213.04,321.943 212.765,322.307 212.345,322.553C210.484,323.609 209.479,322.525 208.699,321.165C208.745,321.225 208.787,321.278 208.827,321.318L208.451,320.819L207.871,319.716L207.33,318.631L206.888,318.021C206.888,318.021 206.329,317.442 206.294,317.376C206.261,317.305 205.884,316.46 205.884,316.46L205.744,316.045L205.038,312.591L205.801,311.934L207.449,310.308L206.039,308.452L205.092,306.127L206.274,303.105L204.624,301.477C204.624,301.477 203.916,300.783 204.624,300.55C205.327,300.317 207.687,300.317 207.687,300.317L207.449,297.065L208.869,295.204L208.869,293.115L210.755,292.415L210.755,291.489L209.812,290.789L213.115,287.074L215.473,287.074L218.306,285.909L219.719,286.841L222.555,285.213L225.385,286.841L227.035,288.466L226.327,290.556L228.213,293.114L231.753,293.347L233.643,294.044L236.239,295.437L237.417,297.529L237.417,299.62L237.889,301.71L237.854,302.107L237.852,302.109L237.736,303.358C237.728,303.329 237.72,303.3 237.711,303.271C237.688,303.184 237.66,303.094 237.625,302.992C237.586,302.876 237.558,302.782 237.539,302.704C237.456,302.347 237.58,302.319 237.852,302.109L237.852,302.107C237.579,302.319 237.455,302.345 237.539,302.704C237.558,302.782 237.586,302.876 237.625,302.992C237.658,303.094 237.686,303.185 237.711,303.271Z" style="fill:rgb(241,103,34);"></path> </g> </svg> 