<?xml version="1.0" encoding="UTF-8" standalone="no"?> <svg xmlns="http://www.w3.org/2000/svg" xmlns:xlink="http://www.w3.org/1999/xlink" xmlns:serif="http://www.serif.com/" width="100%" height="100%" viewBox="0 0 25 25" version="1.1" xml:space="preserve" style="fill-rule:evenodd;clip-rule:evenodd;stroke-linejoin:round;stroke-miterlimit:2;"> <g id="Dartmoor" transform="matrix(1,0,0,1,-173.954,-571.246)"> <path d="M195.283,581.6L195.828,582.67L196.19,584.278L194.921,586.064L192.745,587.493C192.745,587.493 192.381,588.564 192.201,589.101C192.02,589.636 191.838,589.813 191.115,590.348C190.387,590.887 191.295,591.956 191.295,591.956L190.933,593.205C190.933,593.205 189.482,593.921 188.577,594.456C187.669,594.991 187.669,595.104 187.354,595.846C187.039,596.59 185.132,596.064 185.132,596.064L182.774,595.17C182.774,595.17 181.886,594.152 181.325,593.385C180.762,592.619 180.961,591.779 180.961,591.779C180.961,591.779 179.413,593.041 178.949,593.334C178.488,593.629 177.164,592.004 177.164,592.004L176.039,591.095L176.791,589.101C176.791,589.101 175.341,588.564 174.797,588.387C174.253,588.207 174.797,587.136 174.797,587.136L175.704,585.707L175.704,583.744C175.704,582.49 174.797,581.958 174.254,581.244C173.71,580.529 174.071,580.35 174.071,580.35C174.071,580.35 174.979,579.458 175.704,579.1C176.427,578.744 176.609,578.389 177.152,577.672C177.696,576.958 179.149,573.209 179.692,572.852C180.236,572.495 181.687,571.78 181.687,571.78L183.497,571.246C183.497,571.246 186.219,571.601 186.762,571.78C187.306,571.96 187.488,571.96 187.852,572.672C188.213,573.387 188.577,573.029 189.12,573.029C189.664,573.029 190.75,573.029 191.476,572.315L193.832,573.029L195.282,574.813L197.822,576.601L198.002,580.35L195.282,581.6L195.283,581.6Z" style="fill:rgb(241,103,34);"></path> </g> </svg> 