<?xml version="1.0" encoding="UTF-8" standalone="no"?> <svg xmlns="http://www.w3.org/2000/svg" xmlns:xlink="http://www.w3.org/1999/xlink" xmlns:serif="http://www.serif.com/" width="100%" height="100%" viewBox="0 0 37 19" version="1.1" xml:space="preserve" style="fill-rule:evenodd;clip-rule:evenodd;stroke-linejoin:round;stroke-miterlimit:2;"> <g id="Exmoor" transform="matrix(1,0,0,1,-176.58,-535.231)"> <path d="M195.174,536.27C194.111,536.285 193.029,536.254 191.904,536.021C190.391,535.715 189.087,535.176 187.563,535.236C187.357,535.243 187.257,535.252 187.161,535.265C186.807,535.318 186.824,535.307 186.563,535.349C186.106,535.431 185.671,535.529 185.24,535.624C184.783,535.722 184.506,535.808 184.056,535.837C183.856,535.853 183.728,535.899 183.446,535.915C183.216,535.933 182.98,535.944 182.738,535.937C182.538,535.926 182.338,535.924 182.141,535.924C181.984,536.072 181.818,536.245 181.594,536.363C181.137,536.625 180.356,536.458 179.93,536.423L177.18,536.731L176.58,538.703L179.38,539.493L179.18,540.871L180.981,541.656L182.98,542.643L184.18,544.023L184.98,546.978L186.782,547.37L187.982,549.145L191.183,550.72L194.185,551.51L196.383,551.705L199.185,551.902L201.385,553.479L201.986,552.297L204.788,552.889L205.188,551.117L206.388,549.935L206.585,548.36L207.787,547.765L209.788,547.962L211.789,547.962L213.389,546.782L212.787,545.4L210.791,542.84L208.788,543.036L207.588,542.448L206.585,540.673L205.458,538.965C205.198,538.981 205.05,538.901 204.892,538.756C204.735,538.608 204.562,538.399 204.254,538.158C204.067,538.008 203.908,537.865 203.766,537.728C203.169,537.532 202.579,537.301 201.993,537.035C200.323,536.27 198.71,536.192 197.08,536.225" style="fill:rgb(241,103,34);"></path> </g> </svg> 